<svg xmlns="http://www.w3.org/2000/svg" viewBox="0 0 100 100">
  <defs><linearGradient id="g" x1="0" y1="0" x2="1" y2="1">
    <stop offset="0" stop-color="#F4D584"/><stop offset=".5" stop-color="#C9A24B"/><stop offset="1" stop-color="#9A7628"/>
  </linearGradient></defs>
  <rect width="100" height="100" rx="22" fill="#0B1020"/>
  <g transform="translate(8,8) scale(0.84)">
    <path fill="url(#g)" d="M16,62 Q13,54 21,50 Q26,47 29,43 L31,40 Q33,30 43,29 L40,15 Q49,19 50,24 L61,11 Q63,20 66,22 L80,13 Q80,23 84,27 L96,25 Q90,32 92,37 L99,43 Q93,47 94,51 L98,63 Q90,60 89,64 L90,77 Q82,72 80,75 L74,87 Q72,78 68,77 L58,91 Q58,80 53,80 Q45,84 39,78 Q43,75 41,73 Q33,75 30,69 Q34,67 33,65 Q24,66 20,62 Q18,61 16,62 Z"/>
    <g fill="#0B1020">
      <path d="M44,30 Q40,52 42,74 Q47,52 49,31 Z"/>
      <path d="M54,28 Q70,29 86,36 Q70,32 55,33 Z"/>
      <path d="M57,42 Q77,45 90,52 Q75,48 59,47 Z"/>
      <path d="M56,57 Q74,62 84,72 Q70,63 58,61 Z"/>
      <path d="M50,70 Q62,76 68,84 Q58,76 51,74 Z"/>
      <path d="M27,49 Q32,46 36,49 Q32,52 27,51 Z"/>
    </g>
  </g>
</svg>
